<mxfile host="Electron" modified="2023-04-20T15:34:09.564Z" agent="Mozilla/5.0 (Macintosh; Intel Mac OS X 10_15_7) AppleWebKit/537.36 (KHTML, like Gecko) draw.io/21.1.2 Chrome/106.0.5249.199 Electron/21.4.3 Safari/537.36" etag="EH89ij5yFGFcUaZd1HBB" version="21.1.2" type="device">
  <diagram name="Page-1" id="LEeZ95nxpSWw1AGHZ1Hd">
    <mxGraphModel dx="732" dy="811" grid="1" gridSize="10" guides="1" tooltips="1" connect="1" arrows="1" fold="1" page="1" pageScale="1" pageWidth="850" pageHeight="1100" math="0" shadow="0">
      <root>
        <mxCell id="0" />
        <mxCell id="1" parent="0" />
        <mxCell id="yHvDCYGFjGAFw5tdtCBj-7" value="" style="edgeStyle=orthogonalEdgeStyle;rounded=0;orthogonalLoop=1;jettySize=auto;html=1;" parent="1" source="jRqtNyKgf6l_IyG3Fnu4-1" target="yHvDCYGFjGAFw5tdtCBj-2" edge="1">
          <mxGeometry relative="1" as="geometry" />
        </mxCell>
        <mxCell id="yHvDCYGFjGAFw5tdtCBj-9" value="" style="edgeStyle=orthogonalEdgeStyle;rounded=0;orthogonalLoop=1;jettySize=auto;html=1;" parent="1" source="jRqtNyKgf6l_IyG3Fnu4-1" target="yHvDCYGFjGAFw5tdtCBj-2" edge="1">
          <mxGeometry relative="1" as="geometry" />
        </mxCell>
        <mxCell id="jRqtNyKgf6l_IyG3Fnu4-1" value="main()" style="rounded=1;whiteSpace=wrap;html=1;" parent="1" vertex="1">
          <mxGeometry x="160" y="150" width="80" height="20" as="geometry" />
        </mxCell>
        <mxCell id="jRqtNyKgf6l_IyG3Fnu4-7" style="edgeStyle=orthogonalEdgeStyle;rounded=0;orthogonalLoop=1;jettySize=auto;html=1;entryX=0;entryY=0.5;entryDx=0;entryDy=0;" parent="1" target="jRqtNyKgf6l_IyG3Fnu4-8" edge="1">
          <mxGeometry relative="1" as="geometry">
            <mxPoint x="100" y="130" as="targetPoint" />
            <Array as="points">
              <mxPoint x="200" y="360" />
              <mxPoint x="130" y="360" />
              <mxPoint x="130" y="200" />
            </Array>
            <mxPoint x="200" y="340" as="sourcePoint" />
          </mxGeometry>
        </mxCell>
        <mxCell id="jRqtNyKgf6l_IyG3Fnu4-4" value="&lt;font style=&quot;font-size: 10px;&quot;&gt;Task Handler&lt;/font&gt;" style="rounded=0;whiteSpace=wrap;html=1;" parent="1" vertex="1">
          <mxGeometry x="160" y="315" width="80" height="30" as="geometry" />
        </mxCell>
        <mxCell id="jRqtNyKgf6l_IyG3Fnu4-8" value="&lt;font style=&quot;font-size: 10px;&quot;&gt;Scheduler Loop&lt;/font&gt;" style="rounded=0;whiteSpace=wrap;html=1;" parent="1" vertex="1">
          <mxGeometry x="160" y="190" width="80" height="20" as="geometry" />
        </mxCell>
        <mxCell id="jRqtNyKgf6l_IyG3Fnu4-9" value="" style="endArrow=classic;html=1;rounded=0;entryX=0.5;entryY=0;entryDx=0;entryDy=0;" parent="1" target="jRqtNyKgf6l_IyG3Fnu4-4" edge="1">
          <mxGeometry width="50" height="50" relative="1" as="geometry">
            <mxPoint x="200" y="290" as="sourcePoint" />
            <mxPoint x="220" y="220" as="targetPoint" />
          </mxGeometry>
        </mxCell>
        <mxCell id="yHvDCYGFjGAFw5tdtCBj-4" value="Yes" style="edgeLabel;html=1;align=center;verticalAlign=middle;resizable=0;points=[];" parent="jRqtNyKgf6l_IyG3Fnu4-9" vertex="1" connectable="0">
          <mxGeometry relative="1" as="geometry">
            <mxPoint x="20" y="-3" as="offset" />
          </mxGeometry>
        </mxCell>
        <mxCell id="V1fbTBzL040UEDJPXokG-2" value="&lt;font style=&quot;font-size: 10px;&quot;&gt;ISR&lt;/font&gt;" style="rounded=0;whiteSpace=wrap;html=1;" parent="1" vertex="1">
          <mxGeometry x="280" y="310" width="40" height="40" as="geometry" />
        </mxCell>
        <mxCell id="V1fbTBzL040UEDJPXokG-5" value="" style="endArrow=classic;html=1;rounded=1;jumpStyle=none;dashed=1;" parent="1" edge="1">
          <mxGeometry width="50" height="50" relative="1" as="geometry">
            <mxPoint x="240" y="320" as="sourcePoint" />
            <mxPoint x="280" y="320" as="targetPoint" />
          </mxGeometry>
        </mxCell>
        <mxCell id="V1fbTBzL040UEDJPXokG-6" value="" style="endArrow=classic;html=1;rounded=0;dashed=1;" parent="1" edge="1">
          <mxGeometry width="50" height="50" relative="1" as="geometry">
            <mxPoint x="280" y="340" as="sourcePoint" />
            <mxPoint x="240" y="340" as="targetPoint" />
            <Array as="points">
              <mxPoint x="280" y="340" />
            </Array>
          </mxGeometry>
        </mxCell>
        <mxCell id="V1fbTBzL040UEDJPXokG-9" value="" style="endArrow=classic;html=1;rounded=0;entryX=0.5;entryY=0;entryDx=0;entryDy=0;" parent="1" target="jRqtNyKgf6l_IyG3Fnu4-8" edge="1">
          <mxGeometry width="50" height="50" relative="1" as="geometry">
            <mxPoint x="200" y="170" as="sourcePoint" />
            <mxPoint x="270" y="170" as="targetPoint" />
          </mxGeometry>
        </mxCell>
        <mxCell id="yHvDCYGFjGAFw5tdtCBj-2" value="&lt;font style=&quot;font-size: 10px;&quot;&gt;Expired Task?&lt;/font&gt;" style="rhombus;whiteSpace=wrap;html=1;" parent="1" vertex="1">
          <mxGeometry x="170" y="230" width="60" height="60" as="geometry" />
        </mxCell>
        <mxCell id="yHvDCYGFjGAFw5tdtCBj-3" value="" style="endArrow=classic;html=1;rounded=0;exitX=0.5;exitY=1;exitDx=0;exitDy=0;" parent="1" source="jRqtNyKgf6l_IyG3Fnu4-8" edge="1">
          <mxGeometry width="50" height="50" relative="1" as="geometry">
            <mxPoint x="250" y="230" as="sourcePoint" />
            <mxPoint x="200" y="230" as="targetPoint" />
          </mxGeometry>
        </mxCell>
        <mxCell id="yHvDCYGFjGAFw5tdtCBj-5" value="" style="endArrow=classic;html=1;rounded=0;" parent="1" edge="1">
          <mxGeometry width="50" height="50" relative="1" as="geometry">
            <mxPoint x="230" y="260" as="sourcePoint" />
            <mxPoint x="280" y="260" as="targetPoint" />
          </mxGeometry>
        </mxCell>
        <mxCell id="yHvDCYGFjGAFw5tdtCBj-8" value="No" style="edgeLabel;html=1;align=center;verticalAlign=middle;resizable=0;points=[];" parent="yHvDCYGFjGAFw5tdtCBj-5" vertex="1" connectable="0">
          <mxGeometry x="-0.1569" y="-1" relative="1" as="geometry">
            <mxPoint y="9" as="offset" />
          </mxGeometry>
        </mxCell>
        <mxCell id="yHvDCYGFjGAFw5tdtCBj-6" value="&lt;font style=&quot;font-size: 10px;&quot;&gt;Sleep&lt;/font&gt;" style="rounded=0;whiteSpace=wrap;html=1;" parent="1" vertex="1">
          <mxGeometry x="280" y="245" width="40" height="30" as="geometry" />
        </mxCell>
        <mxCell id="yHvDCYGFjGAFw5tdtCBj-10" value="" style="endArrow=classic;html=1;rounded=0;entryX=1;entryY=0.5;entryDx=0;entryDy=0;exitX=0.5;exitY=0;exitDx=0;exitDy=0;" parent="1" source="yHvDCYGFjGAFw5tdtCBj-6" target="jRqtNyKgf6l_IyG3Fnu4-8" edge="1">
          <mxGeometry width="50" height="50" relative="1" as="geometry">
            <mxPoint x="270" y="230" as="sourcePoint" />
            <mxPoint x="320" y="180" as="targetPoint" />
            <Array as="points">
              <mxPoint x="300" y="200" />
            </Array>
          </mxGeometry>
        </mxCell>
        <mxCell id="ciFKWzBJf0vlTgb8NeDZ-1" value="&lt;font style=&quot;font-size: 10px;&quot;&gt;SCHED_TASK_EXECUTING &amp;nbsp;/&lt;/font&gt;" style="text;html=1;strokeColor=none;fillColor=none;align=center;verticalAlign=middle;whiteSpace=wrap;rounded=0;" parent="1" vertex="1">
          <mxGeometry x="130" y="360" width="190" height="20" as="geometry" />
        </mxCell>
        <mxCell id="ciFKWzBJf0vlTgb8NeDZ-2" style="edgeStyle=orthogonalEdgeStyle;rounded=0;orthogonalLoop=1;jettySize=auto;html=1;exitX=0.5;exitY=1;exitDx=0;exitDy=0;" parent="1" source="ciFKWzBJf0vlTgb8NeDZ-1" target="ciFKWzBJf0vlTgb8NeDZ-1" edge="1">
          <mxGeometry relative="1" as="geometry" />
        </mxCell>
        <mxCell id="ciFKWzBJf0vlTgb8NeDZ-3" value="&lt;font style=&quot;font-size: 10px;&quot;&gt;SCHED_TASK_STOPPING&amp;nbsp;&lt;/font&gt;" style="text;html=1;strokeColor=none;fillColor=none;align=center;verticalAlign=middle;whiteSpace=wrap;rounded=0;" parent="1" vertex="1">
          <mxGeometry x="130" y="380" width="190" height="10" as="geometry" />
        </mxCell>
      </root>
    </mxGraphModel>
  </diagram>
</mxfile>
